<svg id="SvgjsSvg1042" width="288" height="288" xmlns="http://www.w3.org/2000/svg" version="1.1" xmlns:xlink="http://www.w3.org/1999/xlink" xmlns:svgjs="http://svgjs.com/svgjs"><path id="SvgjsPath1050" d="M 144,0 C 5,0 0,5 0,144 0,283 5,288 144,288 283,288 288,283 288,144 288,5 283,0 144,0 Z" fill="#87ddfd" transform="matrix(0.7916,0,0,0.7916,30.009600000000006,30.009600000000006)"></path><defs id="SvgjsDefs1043"></defs><g id="SvgjsG1044" transform="matrix(0.4652,0,0,0.4652,77.0112,77.0112)"><svg xmlns="http://www.w3.org/2000/svg" viewBox="0 0 256 256" width="288" height="288"><rect width="256" height="256" fill="none"></rect><polyline fill="none" stroke="#000" stroke-linecap="round" stroke-linejoin="round" stroke-width="16" points="64 88 16 128 64 168"></polyline><polyline fill="none" stroke="#000" stroke-linecap="round" stroke-linejoin="round" stroke-width="16" points="192 88 240 128 192 168"></polyline><line x1="160" x2="96" y1="40" y2="216" fill="none" stroke="#000000" stroke-linecap="round" stroke-linejoin="round" stroke-width="16" class="colorStroke000 svgStroke"></line></svg></g></svg>