<svg id="SvgjsSvg1027" width="288" height="288" xmlns="http://www.w3.org/2000/svg" version="1.1" xmlns:xlink="http://www.w3.org/1999/xlink" xmlns:svgjs="http://svgjs.com/svgjs"><path id="SvgjsPath1034" d="M 144,0 C 5,0 0,5 0,144 0,283 5,288 144,288 283,288 288,283 288,144 288,5 283,0 144,0 Z" fill="#87ddfd" transform="matrix(0.7916,0,0,0.7916,30.009600000000006,30.009600000000006)"></path><defs id="SvgjsDefs1028"></defs><g id="SvgjsG1029" transform="matrix(0.4652,0,0,0.4652,77.0112,77.0112)"><svg xmlns="http://www.w3.org/2000/svg" viewBox="0 0 256 256" width="288" height="288"><rect width="256" height="256" fill="none"></rect><rect width="208" height="160" x="24" y="40" rx="24" fill="#000000" class="color000 svgShape"></rect><path d="M160,216.0002H96a8,8,0,0,0,0,16h64a8,8,0,0,0,0-16Z" fill="#000000" class="color000 svgShape"></path></svg></g></svg>